<svg xmlns="http://www.w3.org/2000/svg" viewBox="0 0 660 570" fill="none"><defs><linearGradient id="f" x1="160" y1="180" x2="470" y2="340" gradientUnits="userSpaceOnUse"><stop stop-color="#53667e"/><stop offset=".45" stop-color="#142238"/><stop offset="1" stop-color="#344762"/></linearGradient><linearGradient id="l" x1="230" y1="190" x2="330" y2="310" gradientUnits="userSpaceOnUse"><stop stop-color="#ccedfb" stop-opacity=".7"/><stop offset="1" stop-color="#68a0cb" stop-opacity=".28"/></linearGradient></defs><ellipse cx="350" cy="445" rx="180" ry="20" fill="#25456b" opacity=".09"/><path d="m161 241 15-128 19-16 152 28 115 145" stroke="url(#f)" stroke-width="18" stroke-linecap="round"/><path d="m448 295 22-129 28-14 57 124" stroke="url(#f)" stroke-width="17" stroke-linecap="round"/><path d="m162 215 109 27 102 28 97 26" stroke="url(#f)" stroke-width="18" stroke-linecap="round"/><path d="m165 223 111 28-12 73-91-25z" fill="url(#l)" stroke="url(#f)" stroke-width="10" stroke-linejoin="round"/><path d="m346 266 118 27-13 73-98-27z" fill="url(#l)" stroke="url(#f)" stroke-width="10" stroke-linejoin="round"/><path d="m276 260 20-2 51 17" stroke="url(#f)" stroke-width="13"/><rect x="450" y="282" width="26" height="25" rx="5" fill="#152a47"/><circle cx="463" cy="294" r="7" fill="#74a9d8"/><path d="m386 355 125 29v95l-125-30z" fill="#baa077"/><path d="m386 355 70-37 128 29-73 37z" fill="#ddc49c"/><path d="m511 384 73-37v95l-73 37z" fill="#ab9068"/><path d="m421 350 131 27" stroke="#eadaba" stroke-width="18"/><path d="m408 385 70 17v46l-70-17z" fill="#fff"/><path d="m417 399 15 4v15l-15-4z m30 6 15 4v15l-15-4z m-29 18 15 4v10l-15-4z" fill="#233952"/><path d="m196 256 20 5m-20-5-2 17m38 38 19 5 2-17" stroke="#3472dc" stroke-width="3"/></svg>
